<svg class="style-svg replaced-svg svg-replaced-4" id="badaro-logo" fill="none" viewBox="0 0 1024 256" height="256" width="1024" xmlns="http://www.w3.org/2000/svg">
<path fill="black" d="M261.03 75.1002C282.619 75.1002 301.573 85.0267 314.645 99.079V80.0022H351.103V244.218H314.645V225.264L314.175 225.815C301.9 239.868 283.681 248.528 262.051 249.079L260.907 249.1H259.825C210.846 249.1 177.104 213.05 177.104 162.09C177.083 111.64 212.214 75.1002 261.03 75.1002ZM645.63 75.1002C667.219 75.1002 685.417 84.2097 698.489 98.2416L699.245 99.0586V79.9818H735.703V244.198H699.245V225.243L698.775 225.795C686.5 239.847 668.281 248.507 646.651 249.059L645.507 249.079H644.425C595.446 249.079 561.704 213.029 561.704 162.069C561.683 111.64 596.814 75.1002 645.63 75.1002ZM543.71 11.4359V244.218H507.251V224.426L506.393 225.223C490.727 239.602 473.407 248.446 454.004 249.079L452.901 249.1H451.798C403.227 249.1 369.69 213.152 369.69 162.09C369.69 111.191 404.024 75.0798 453.023 75.0798C472.386 75.0798 490.707 82.0038 503.534 93.2171L504.29 93.8911L504.8 94.3609V11.4359H543.71ZM936.684 70.6068C986.847 70.6068 1024 107.576 1024 157.617C1024 207.453 986.745 244.627 936.684 244.627C886.479 244.627 849.674 207.617 849.674 157.617C849.674 107.514 886.582 70.6068 936.684 70.6068ZM847.938 74.6917V109.965L844.18 109.986C818.526 110.721 797.019 131.371 796.61 158.536V159.353V244.198H759.805V159.373C759.805 109.373 795.16 75.3658 843.424 74.6917L844.894 74.6713H847.938V74.6917ZM79.0442 11.3747C120.588 11.3747 149.51 36.967 149.51 73.6909C149.51 94.2383 140.298 112.539 124.632 123.037L123.836 123.548L124.489 123.814C148.244 133.699 160.519 153.45 161.111 178.797L161.132 179.757V180.676C161.132 216.277 131.393 243.646 90.6863 244.198H89.4404H0V11.3542H79.0442V11.3747ZM649.612 110.333C621.692 110.333 601.206 131.84 601.206 161.804C601.206 191.563 621.794 213.274 649.612 213.274C677.819 213.274 698.019 191.808 698.019 161.804C698.019 131.616 677.921 110.333 649.612 110.333ZM265.012 110.333C237.092 110.333 216.606 131.84 216.606 161.804C216.606 191.563 237.194 213.274 265.012 213.274C293.219 213.274 313.419 191.808 313.419 161.804C313.419 131.616 293.321 110.333 265.012 110.333ZM457.619 110.333C429.698 110.333 409.212 131.84 409.212 161.804C409.212 191.563 429.8 213.274 457.619 213.274C485.826 213.274 506.026 191.808 506.026 161.804C506.026 131.616 485.928 110.333 457.619 110.333ZM935.969 105.329C908.252 105.329 888.481 126.632 888.481 156.8C888.481 186.783 908.354 208.27 935.969 208.27C963.767 208.27 983.457 186.906 983.457 156.8C983.457 126.51 963.869 105.329 935.969 105.329ZM86.6627 144.136H39.0115V209.496H85.4372C106.761 209.496 120.711 195.954 120.711 176.959C120.711 158.679 106.679 144.463 87.3571 144.136H86.6627ZM77.451 46.0969H39.9306V109.414H78.6765C97.6512 109.414 111.418 95.7702 111.418 77.8984C111.418 59.6182 98.2231 46.4033 78.1863 46.0969H77.451Z"></path>
<path fill="#FF1F6D" d="M975.246 61.4747C989.87 61.4747 1001.72 49.6283 1001.72 35.0041C1001.72 20.3799 989.87 8.53345 975.246 8.53345C960.621 8.53345 948.775 20.3799 948.775 35.0041C948.775 49.6283 960.621 61.4747 975.246 61.4747Z"></path>
</svg>